<svg xmlns="http://www.w3.org/2000/svg" version="1.1" xmlns:xlink="http://www.w3.org/1999/xlink" width="361" height="361"><svg xmlns="http://www.w3.org/2000/svg" version="1.1" xmlns:xlink="http://www.w3.org/1999/xlink" width="361" height="361"><svg width="361" height="361" viewBox="0 0 361 361" fill="none" xmlns="http://www.w3.org/2000/svg">
<path d="M258.696 17.482C287.89 31.844 312.199 53.07 330.145 79.87C336.724 89.694 348.764 112.569 347.842 113.491C347.606 113.727 324.484 90.988 296.46 62.96C268.436 34.932 245.438 12 246 12C246.562 12 252.567 14.467 258.696 17.482Z" fill="#FF4136"></path>
<path d="M212.879 2.5L285.311 74.628L358 147L358.988 156.628C359.672 162.057 359.701 168.254 359.5 169.5C359.195 171.387 345.174 156.704 274.002 85.516L188.504 0L193.002 0.0650024C195.476 0.101006 200.96 0.663002 205.19 1.315L209.035 1.9075L212.879 2.5Z" fill="#FF4136"></path>
<path d="M263.415 96.915L360.327 193.831L359.093 202.653C358.414 207.505 357.259 212.241 357 212.5C356.742 212.758 309.686 165.184 251.958 107.458C194.23 49.732 147.402 2.366 147.897 2.201C149.1 1.8 156.5 0.500008 166.5 0.500008C167.611 0.443665 172.996 5.4248 189.876 22.639L189.878 22.6413C204.154 37.1997 227.009 60.5072 263.415 96.915Z" fill="#FF4136"></path>
<path d="M241.375 118.875L353.247 230.751L350.542 238.875C349.053 243.344 347.534 247 347.166 247C346.003 247 112.558 13.109 113.14 12.527C113.786 11.881 127.017 7.185 128.502 7.074C129.053 7.033 179.846 57.344 241.375 118.875Z" fill="#FF4136"></path>
<path d="M219 141.4C285.55 207.895 340 262.658 340 263.096C340 264.376 332.974 276 332.201 276C331.814 276 275.577 220.078 207.229 151.729L82.962 27.459L89.231 23.729C92.679 21.678 96.062 20.112 96.75 20.25C97.437 20.387 152.449 74.905 219 141.4Z" fill="#FF4136"></path>
<path d="M196.908 163.408L323.313 289.816L320.267 293.658C318.591 295.771 316.249 298.377 315.062 299.449L312.903 301.398L242.702 231.218C204.091 192.619 146.628 135.398 115.008 104.061C77.687 67.075 57.9048 47.0917 58 47C60.271 44.812 69.52 36.5 70 36.5C70.1736 36.5 91.276 57.6392 123.382 89.8015L123.39 89.8096L123.395 89.814C144.185 110.64 169.587 136.087 196.908 163.408Z" fill="#FF4136"></path>
<path d="M176.21 187.274C275.189 285.786 301 313.5 301 313.5C300.391 314.235 297.483 316.922 294.767 319.195L289.831 323.328L163.415 196.915C93.887 127.389 37.002 70.277 37.005 70.001C37.008 69.726 39.12 66.9 41.7 63.722L46.389 57.945L48.445 60.051C49.575 61.209 107.07 118.46 176.21 187.274Z" fill="#FF4136"></path>
<path d="M275.689 332.433C275.309 333.572 263.801 340.07 262.753 339.737C261.386 339.303 20 97.531 20 96.596C20 96.09 21.675 92.813 23.723 89.313L27.446 82.949L151.723 207.223C220.076 275.574 275.86 331.919 275.689 332.433Z" fill="#FF4136"></path>
<path d="M130.248 229.748C194.462 293.96 247 346.632 247 347C247 347.368 243.344 349.053 238.875 350.542L230.751 353.247L118.825 241.374C19.684 142.278 6.07499 130.738 6.5 128.5C7.231 124.655 12.054 113 12.82 113C13.192 113 66.035 165.537 130.248 229.748Z" fill="#FF4136"></path>
<path d="M212 357.106C212 357.442 207.887 358.278 202.859 358.965L193.718 360.214L96.859 263.359C26.787 193.29 0 168.099 0 166.5C0 165.284 0.511997 158.639 1.138 154.431L2.276 146.779L107.138 251.638C164.812 309.31 212 356.771 212 357.106Z" fill="#FF4136"></path>
<path d="M169.357 359.854C167.214 360.307 148.677 358.929 147 358C146.302 357.614 113.62 324.108 74.093 284.642L2 213.5L1.113 205.402C0.501003 201.286 0 195.8 0 193.211V188.504L85.514 274.002C143.661 332.138 170.493 359.613 169.357 359.854Z" fill="#FF4136"></path>
<path d="M63.96 296.47C91.699 324.228 114.17 347.163 113.897 347.436C113.623 347.71 109.147 346.004 103.95 343.646C66.799 326.788 34.537 294.873 16.944 257.576C11.742 246.548 11.544 246 12.763 246C13.182 246 36.221 268.711 63.96 296.47Z" fill="#FF4136"></path>
</svg></svg><style>@media (prefers-color-scheme: light) { :root { filter: none; } }
@media (prefers-color-scheme: dark) { :root { filter: none; } }
</style></svg>