<svg width="498" height="498" viewBox="0 0 498 498" fill="none" xmlns="http://www.w3.org/2000/svg">
<path fill-rule="evenodd" clip-rule="evenodd" d="M497.809 283.287C497.793 271.544 497.776 259.021 497.758 245.663C497.775 258.932 497.793 271.377 497.809 283.052L497.809 283.287Z" fill="#FF4136"/>
<path fill-rule="evenodd" clip-rule="evenodd" d="M40.5154 0.946295C37.7774 1.4043 31.8614 3.6003 27.3684 5.8263C18.3174 10.3113 11.3934 16.9433 6.09837 26.1973C5.74846 26.8089 5.41864 27.3474 5.10776 27.8549C4.80563 28.3482 4.5214 28.8122 4.25399 29.2858C0.00554848 36.8096 0.00578149 46.7324 0.00971677 214.307C0.00997182 225.168 0.0102424 236.691 0.00937284 248.919C0.00844892 261.851 0.00632791 273.988 0.00433689 285.382C-0.0242965 449.231 -0.0260487 459.258 3.94614 467.329C4.20507 467.855 4.48088 468.373 4.77466 468.924C5.08771 469.512 5.42118 470.138 5.77637 470.853C12.0234 483.434 27.5834 494.603 41.9944 496.85C51.1424 498.277 447.147 498.243 455.994 496.815C470.524 494.469 484.849 484.225 491.724 471.263C492.119 470.519 492.489 469.87 492.836 469.262C493.165 468.685 493.474 468.144 493.763 467.593C498.055 459.408 498.041 448.963 497.809 283.287C497.793 271.544 497.776 259.021 497.758 245.663L497.494 39.3793L495.102 33.3793C491.88 25.2983 486.771 17.7423 481.146 12.7393C475.225 7.4733 464.074 2.1143 456.432 0.863295C449.081 -0.340705 47.7354 -0.259705 40.5154 0.946295ZM332.409 165.794L429.321 262.71L428.087 271.532C427.408 276.384 426.253 281.12 425.994 281.379C425.736 281.637 378.68 234.063 320.952 176.337C263.224 118.611 216.396 71.2453 216.891 71.0803C218.094 70.6793 225.494 69.3793 235.494 69.3793C236.606 69.323 241.99 74.3041 258.87 91.5183C273.146 106.077 296.001 129.385 332.409 165.794ZM274.184 70.1943L278.029 70.7868L281.873 71.3793L354.305 143.507L426.994 215.879L427.982 225.507C428.666 230.936 428.695 237.133 428.494 238.379C428.189 240.266 414.168 225.583 342.996 154.395L257.498 68.8793L261.996 68.9443C264.47 68.9803 269.954 69.5423 274.184 70.1943ZM310.369 187.754L422.241 299.63L419.536 307.754C418.047 312.223 416.528 315.879 416.16 315.879C414.997 315.879 181.552 81.9883 182.134 81.4063C182.78 80.7603 196.011 76.0643 197.496 75.9533C198.047 75.9123 248.84 126.223 310.369 187.754ZM327.69 86.3613C356.884 100.723 381.193 121.949 399.139 148.749C405.718 158.573 417.758 181.448 416.836 182.37C416.6 182.606 393.478 159.867 365.454 131.839C337.43 103.811 314.432 80.8793 314.994 80.8793C315.556 80.8793 321.561 83.3463 327.69 86.3613ZM287.994 210.279C354.544 276.774 408.994 331.537 408.994 331.975C408.994 333.255 401.968 344.879 401.195 344.879C400.808 344.879 344.571 288.957 276.223 220.608L151.956 96.3383L158.225 92.6083C161.673 90.5573 165.056 88.9913 165.744 89.1293C166.431 89.2663 221.443 143.784 287.994 210.279ZM265.902 232.287L392.307 358.695L389.261 362.537C387.585 364.65 385.243 367.256 384.056 368.328L381.897 370.277L311.696 300.097C273.085 261.498 215.622 204.277 184.002 172.94C146.681 135.954 126.899 115.971 126.994 115.879C129.265 113.691 138.514 105.379 138.994 105.379C139.168 105.379 160.27 126.518 192.377 158.681L192.385 158.689C213.175 179.516 238.579 204.964 265.902 232.287ZM245.204 256.153C344.183 354.665 369.994 382.379 369.994 382.379C369.385 383.114 366.477 385.801 363.761 388.074L358.825 392.207L232.409 265.794C162.881 196.268 105.996 139.156 105.999 138.88C106.002 138.605 108.114 135.779 110.694 132.601L115.383 126.824L117.439 128.93C118.569 130.088 176.064 187.339 245.204 256.153ZM344.683 401.312C344.303 402.451 332.795 408.949 331.747 408.616C330.38 408.182 88.9944 166.41 88.9944 165.475C88.9944 164.969 90.6694 161.692 92.7174 158.192L96.4404 151.828L220.717 276.102C289.07 344.453 344.854 400.798 344.683 401.312ZM199.242 298.627C263.456 362.839 315.994 415.511 315.994 415.879C315.994 416.247 312.338 417.932 307.869 419.421L299.745 422.126L187.819 310.253C88.6784 211.157 75.0694 199.617 75.4944 197.379C76.2254 193.534 81.0484 181.879 81.8144 181.879C82.1864 181.879 135.029 234.416 199.242 298.627ZM280.994 425.985C280.994 426.321 276.881 427.157 271.853 427.844L262.712 429.093L165.853 332.238C95.7814 262.169 68.9944 236.978 68.9944 235.379C68.9944 234.163 69.5064 227.518 70.1324 223.31L71.2704 215.658L176.132 320.517C233.806 378.189 280.994 425.65 280.994 425.985ZM238.351 428.733C236.208 429.186 217.671 427.808 215.994 426.879C215.296 426.493 182.614 392.987 143.087 353.521L70.9944 282.379L70.1074 274.281C69.4954 270.165 68.9944 264.679 68.9944 262.09V257.383L154.508 342.881C212.655 401.017 239.487 428.492 238.351 428.733ZM132.954 365.349C160.693 393.107 183.164 416.042 182.891 416.315C182.617 416.589 178.141 414.883 172.944 412.525C135.793 395.667 103.531 363.752 85.9384 326.455C80.7364 315.427 80.5384 314.879 81.7574 314.879C82.1764 314.879 105.215 337.59 132.954 365.349Z" fill="#FF4136"/>
</svg>
